<?xml version="1.0" encoding="utf-8"?>
<?xml-stylesheet type="text/xsl" href="rss1.xsl"?>
<rss version="2.0" xmlns:atom="http://www.w3.org/2005/Atom" xmlns:content="http://purl.org/rss/1.0/modules/content/" xmlns:dc="http://purl.org/dc/elements/1.1/" xmlns:media="http://search.yahoo.com/mrss/">
<channel>
 <title>Getty</title>
 <link>http://www.gettyimg.com/</link>
 <atom:link href="http://www.gettyimg.com/" rel="self" type="application/rss+xml" />

 
                <item>
                <title><![CDATA[【Albums (lossless)】FLAC - 은은(Eun Eun) - Fine 2023 [Amazon 16bit/44kHz]]]></title>
                <link><![CDATA[https://sharemania.us/threads/%EC%9D%80%EC%9D%80-eun-eun-fine-2023-amazon-16bit-44khz.233783/]]></link>
                <description><![CDATA[<article>
<blockquote class="messageText SelectQuoteContainer ugc baseHtml">
<img src="https://i.postimg.cc/6qm6c0p7/20607694.jpg" class="bbCodeImage LbImage" alt="[​IMG]" data-url="https://i.postimg.cc/6qm6c0p7/20607694.jpg" style=""> <br>
<img src="https://i.postimg.cc/63zp2wsf/20066145.jpg" class="bbCodeImage LbImage" alt="[​IMG]" data-url="https://i.postimg.cc/63zp2wsf/20066145.jpg" style=""> <br>
<img src="https://i.postimg.cc/QtjMdCzM/20066145-002.jpg" class="bbCodeImage LbImage" alt="[​IMG]" data-url="https://i.postimg.cc/QtjMdCzM/20066145-002.jpg" style=""> <br>
<br>
<br>
<b>Introduce:</b><br>
아티스트 은은(Eun Eun) CONNECT 아티스트<br>
앨범 종류 EP(미니)<br>
발매일 2023.12.11<br>
장르 인디, 발라드<br>
스타일 발라드, 인디 팝<br>
기획사 은은<br>
유통사 3.14<br>
재생 시간 13:58<br>
고음질 FLAC 16bit<br>
<br>
<br>
<b>Track:</b><br>
1-01 Think About You.flac<br>
1-02 How is your Christmas_.flac<br>
1-03 Wait For.flac<br>
1-04 How is your Christmas_ (Instrumental).flac<br>
<br>
<br>
<div class="bbCodeBlock bbCodeVfcHH HiddenContent">
<div class="attribution type">Hidden Content:</div>
<blockquote>You must reply before you can see the hidden data contained here.</blockquote>
</div><b>Unzip the password:</b><br>
<b><br>
<div class="bbCodeBlock bbCodeVfcHH HiddenContent">
<div class="attribution type">Hidden Content:</div>
<blockquote>You must either reply or click 'Like' to see the hidden information contained here.</blockquote>
</div></b>
<div class="messageTextEndMarker">&nbsp;</div>
</blockquote>
</article>]]></description>
                <author><![CDATA[Maco13]]></author>
                </item>

                
                <item>
                <title><![CDATA[【Cinema Center】SERIES - Monster High (2022) - Season 1 - 1080p Amazon WEB-DL DDP5.1 H.264-LAZY]]></title>
                <link><![CDATA[https://sharemania.us/threads/monster-high-2022-season-1-1080p-amazon-web-dl-ddp5-1-h-264-lazy.233782/]]></link>
                <description><![CDATA[<article>
<blockquote class="messageText SelectQuoteContainer ugc baseHtml">
Monster High (2022):<img src="http:////cdn2.broadcasthe.net/tvdb/banners/v4/series/425348/banners/6369529b13eba.jpg" class="bbCodeImage LbImage" alt="[​IMG]" data-url="http:////cdn2.broadcasthe.net/tvdb/banners/v4/series/425348/banners/6369529b13eba.jpg" style=""> <br>
<br>
<div class="bbCodeBlock bbCodeQuote">
<aside>
<blockquote class="quoteContainer"><div class="quote"><i><b>Synopsis:</b></i><br>
The ghoulest school welcomes a new class of reimagined mon-stars! The series follows Clawdeen, Draculaura and Frankie, as they discover who they are, embrace their differences and learn to be fierce and fearless at the one place they all belong: Monster High.</div><div class="quoteExpand">Click to expand...</div></blockquote>
</aside>
</div>
<div class="ToggleTriggerAnchor bbCodeSpoilerContainer">
<button type="button" class="button bbCodeSpoilerButton ToggleTrigger Tooltip JsOnly" data-target="> .SpoilerTarget"><span>Spoiler: <span class="SpoilerTitle">MediaInfo</span></span></button>
<div class="SpoilerTarget bbCodeSpoilerText">General<br>
Unique ID : 198200906675940439892249175290450206952 (0x951C1B2A7F01E2A476C39640AAE6E0E8)<br>
Complete name : Monster.High.2022.S01E01.The.Monstering.1080p.AMZN.WEB-DL.DDP5.1.H.264-LAZY.mkv<br>
Format : Matroska<br>
Format version : Version 4<br>
File size : 1.34 GiB<br>
Duration : 22 min 37 s<br>
Overall bit rate : 8 471 kb/s<br>
Frame rate : 23.976 FPS<br>
Encoded date : 2023-12-09 17:27:48 UTC<br>
Writing application : mkvmerge v81.0 ('Milliontown') 64-bit<br>
Writing library : libebml v1.4.4 + libmatroska v1.7.1<br>
<br>
Video<br>
ID : 1<br>
Format : AVC<br>
Format/Info : Advanced Video Codec<br>
Format profile : High@L4<br>
Format settings : CABAC / 4 Ref Frames<br>
Format settings, CABAC : Yes<br>
Format settings, Reference frames : 4 frames<br>
Codec ID : V_MPEG4/ISO/AVC<br>
Duration : 22 min 37 s<br>
Bit rate mode : Constant<br>
Bit rate : 7 829 kb/s<br>
Nominal bit rate : 10 000 kb/s<br>
Width : 1 920 pixels<br>
Height : 1 080 pixels<br>
Display aspect ratio : 16:9<br>
Frame rate mode : Constant<br>
Frame rate : 23.976 (24000/1001) FPS<br>
Color space : YUV<br>
Chroma subsampling : 4:2:0<br>
Bit depth : 8 bits<br>
Scan type : Progressive<br>
Bits/(Pixel*Frame) : 0.157<br>
Stream size : 1.24 GiB (92%)<br>
Default : Yes<br>
Forced : No<br>
Color range : Limited<br>
Color primaries : BT.709<br>
Transfer characteristics : BT.709<br>
Matrix coefficients : BT.709<br>
<br>
Audio<br>
ID : 2<br>
Format : E-AC-3<br>
Format/Info : Enhanced AC-3<br>
Commercial name : Dolby Digital Plus<br>
Codec ID : A_EAC3<br>
Duration : 22 min 37 s<br>
Bit rate mode : Constant<br>
Bit rate : 640 kb/s<br>
Channel(s) : 6 channels<br>
Channel layout : L R C LFE Ls Rs<br>
Sampling rate : 48.0 kHz<br>
Frame rate : 31.250 FPS (1536 SPF)<br>
Compression mode : Lossy<br>
Stream size : 104 MiB (8%)<br>
Language : English<br>
Service kind : Complete Main<br>
Default : Yes<br>
Forced : No<br>
<br>
Text<br>
ID : 3<br>
Format : UTF-8<br>
Codec ID : S_TEXT/UTF8<br>
Codec ID/Info : UTF-8 Plain Text<br>
Duration : 22 min 0 s<br>
Bit rate : 94 b/s<br>
Frame rate : 0.423 FPS<br>
Count of elements : 558<br>
Stream size : 15.3 KiB (0%)<br>
Title : SDH<br>
Language : English<br>
Default : No<br>
Forced : No</div>
</div><br>
Screenshots:<br>
<img src="https://i.imgur.com/aqHdFy2.jpg" class="bbCodeImage LbImage" alt="[​IMG]" data-url="https://i.imgur.com/aqHdFy2.jpg" style=""> <br>
<br>
<div class="bbCodeBlock bbCodeVfcHH HiddenContent">
<div class="attribution type">Hidden Content:</div>
<blockquote>You must either reply or click 'Like' to see the hidden information contained here.</blockquote>
</div>
<div class="messageTextEndMarker">&nbsp;</div>
</blockquote>
</article>]]></description>
                <author><![CDATA[LazyRips]]></author>
                </item>

                </channel></rss>